<svg width="21" height="22" viewBox="0 0 21 22" fill="none" xmlns="http://www.w3.org/2000/svg">
<path d="M10.5 0C9.34628 0 8.21846 0.339547 7.25917 0.975702C6.29989 1.61186 5.55221 2.51605 5.1107 3.57394C4.66919 4.63183 4.55367 5.7959 4.77875 6.91894C5.00383 8.04199 5.5594 9.07358 6.37521 9.88325C7.19102 10.6929 8.23042 11.2443 9.36197 11.4677C10.4935 11.6911 11.6664 11.5764 12.7323 11.1383C13.7982 10.7001 14.7093 9.95801 15.3502 9.00593C15.9912 8.05386 16.3333 6.93452 16.3333 5.78947C16.3333 4.25401 15.7188 2.78143 14.6248 1.6957C13.5308 0.609961 12.0471 0 10.5 0ZM10.5 9.26316C9.80777 9.26316 9.13108 9.05943 8.5555 8.67774C7.97993 8.29604 7.53133 7.75353 7.26642 7.11879C7.00151 6.48406 6.9322 5.78562 7.06725 5.11179C7.2023 4.43796 7.53564 3.81901 8.02513 3.33321C8.51461 2.8474 9.13825 2.51657 9.81718 2.38254C10.4961 2.2485 11.1999 2.31729 11.8394 2.58021C12.4789 2.84312 13.0256 3.28835 13.4101 3.8596C13.7947 4.43084 14 5.10244 14 5.78947C14 6.71075 13.6313 7.5943 12.9749 8.24574C12.3185 8.89718 11.4283 9.26316 10.5 9.26316ZM21 22V20.8421C21 18.6925 20.1396 16.6308 18.608 15.1108C17.0765 13.5908 14.9993 12.7368 12.8333 12.7368H8.16667C6.00073 12.7368 3.92351 13.5908 2.39196 15.1108C0.860414 16.6308 0 18.6925 0 20.8421V22H2.33333V20.8421C2.33333 19.3066 2.94791 17.8341 4.04188 16.7483C5.13584 15.6626 6.61957 15.0526 8.16667 15.0526H12.8333C14.3804 15.0526 15.8642 15.6626 16.9581 16.7483C18.0521 17.8341 18.6667 19.3066 18.6667 20.8421V22H21Z" fill="black"/>
</svg>
