<svg width="55" height="63" viewBox="0 0 55 63" fill="none" xmlns="http://www.w3.org/2000/svg">
<path d="M27.5002 37.75C34.9455 37.75 41.0002 32.1437 41.0002 25.25C41.0002 18.3562 34.9455 12.75 27.5002 12.75C20.055 12.75 14.0002 18.3562 14.0002 25.25C14.0002 32.1437 20.055 37.75 27.5002 37.75ZM27.5002 19C31.2228 19 34.2502 21.8031 34.2502 25.25C34.2502 28.6969 31.2228 31.5 27.5002 31.5C23.7776 31.5 20.7502 28.6969 20.7502 25.25C20.7502 21.8031 23.7776 19 27.5002 19Z" fill="#6228B4"/>
<path d="M25.5428 62.1687C26.114 62.5465 26.7984 62.7495 27.5003 62.7495C28.2022 62.7495 28.8866 62.5465 29.4578 62.1687C30.4838 61.4969 54.5982 45.375 54.5003 25.25C54.5003 11.4656 42.3874 0.25 27.5003 0.25C12.6132 0.25 0.500297 11.4656 0.500297 25.2344C0.402422 45.375 24.5168 61.4969 25.5428 62.1687ZM27.5003 6.5C38.6682 6.5 47.7503 14.9094 47.7503 25.2656C47.8212 39.1344 32.9408 51.5875 27.5003 55.6719C22.0632 51.5844 7.17942 39.1281 7.2503 25.25C7.2503 14.9094 16.3324 6.5 27.5003 6.5Z" fill="#6228B4"/>
</svg>
