<svg width="81" height="75" viewBox="0 0 81 75" fill="none" xmlns="http://www.w3.org/2000/svg">
<rect width="81" height="75" fill="#6228B4"/>
<path d="M40.5002 43.75C47.9455 43.75 54.0002 38.1437 54.0002 31.25C54.0002 24.3562 47.9455 18.75 40.5002 18.75C33.055 18.75 27.0002 24.3562 27.0002 31.25C27.0002 38.1437 33.055 43.75 40.5002 43.75ZM40.5002 25C44.2228 25 47.2502 27.8031 47.2502 31.25C47.2502 34.6969 44.2228 37.5 40.5002 37.5C36.7776 37.5 33.7502 34.6969 33.7502 31.25C33.7502 27.8031 36.7776 25 40.5002 25Z" fill="white"/>
<path d="M38.5428 68.1687C39.114 68.5465 39.7984 68.7495 40.5003 68.7495C41.2022 68.7495 41.8866 68.5465 42.4578 68.1687C43.4838 67.4969 67.5982 51.375 67.5003 31.25C67.5003 17.4656 55.3874 6.25 40.5003 6.25C25.6132 6.25 13.5003 17.4656 13.5003 31.2344C13.4024 51.375 37.5168 67.4969 38.5428 68.1687ZM40.5003 12.5C51.6682 12.5 60.7503 20.9094 60.7503 31.2656C60.8212 45.1344 45.9408 57.5875 40.5003 61.6719C35.0632 57.5844 20.1794 45.1281 20.2503 31.25C20.2503 20.9094 29.3324 12.5 40.5003 12.5Z" fill="white"/>
</svg>
