<svg width="27" height="27" viewBox="0 0 27 27" fill="none" xmlns="http://www.w3.org/2000/svg">
<path d="M24.5498 8.35988C24.4463 8.21034 24.3081 8.0881 24.147 8.00366C23.986 7.91921 23.8069 7.87507 23.625 7.875H8.24963L6.95138 4.75875C6.78115 4.34838 6.4929 3.99779 6.12318 3.75144C5.75345 3.50509 5.3189 3.37408 4.87463 3.375H2.25V5.625H4.87463L10.2116 18.4331C10.2971 18.6381 10.4413 18.8131 10.6261 18.9362C10.8109 19.0593 11.028 19.125 11.25 19.125H20.25C20.7191 19.125 21.1388 18.8336 21.3041 18.396L24.6791 9.39601C24.7429 9.2257 24.7645 9.04248 24.7419 8.86202C24.7194 8.68157 24.6535 8.50927 24.5498 8.35988ZM19.4704 16.875H12.0004L9.18787 10.125H22.0016L19.4704 16.875Z" fill="black"/>
<path d="M11.8125 23.625C12.7445 23.625 13.5 22.8695 13.5 21.9375C13.5 21.0055 12.7445 20.25 11.8125 20.25C10.8805 20.25 10.125 21.0055 10.125 21.9375C10.125 22.8695 10.8805 23.625 11.8125 23.625Z" fill="black"/>
<path d="M19.6875 23.625C20.6195 23.625 21.375 22.8695 21.375 21.9375C21.375 21.0055 20.6195 20.25 19.6875 20.25C18.7555 20.25 18 21.0055 18 21.9375C18 22.8695 18.7555 23.625 19.6875 23.625Z" fill="black"/>
</svg>
