<svg width="66" height="54" viewBox="0 0 66 54" fill="none" xmlns="http://www.w3.org/2000/svg">
<path d="M59.4 0H6.6C2.9601 0 0 2.4219 0 5.4V54L17.5989 43.2H59.4C63.0399 43.2 66 40.7781 66 37.8V5.4C66 2.4219 63.0399 0 59.4 0ZM59.4 37.8H15.4011L6.6 43.2V5.4H59.4V37.8Z" fill="#6228B4"/>
<path d="M42.9 27C46.5451 27 49.5 24.5823 49.5 21.6C49.5 18.6177 46.5451 16.2 42.9 16.2C39.2549 16.2 36.3 18.6177 36.3 21.6C36.3 24.5823 39.2549 27 42.9 27Z" fill="#6228B4"/>
<path d="M23.1 27C26.7451 27 29.7 24.5823 29.7 21.6C29.7 18.6177 26.7451 16.2 23.1 16.2C19.4549 16.2 16.5 18.6177 16.5 21.6C16.5 24.5823 19.4549 27 23.1 27Z" fill="#6228B4"/>
</svg>
