<svg width="80" height="65" viewBox="0 0 80 65" fill="none" xmlns="http://www.w3.org/2000/svg">
<path d="M72 0H8C3.588 0 0 2.91525 0 6.5V65L21.332 52H72C76.412 52 80 49.0848 80 45.5V6.5C80 2.91525 76.412 0 72 0ZM72 45.5H18.668L8 52V6.5H72V45.5Z" fill="white"/>
<path d="M52 32.5C56.4183 32.5 60 29.5899 60 26C60 22.4101 56.4183 19.5 52 19.5C47.5817 19.5 44 22.4101 44 26C44 29.5899 47.5817 32.5 52 32.5Z" fill="white"/>
<path d="M28 32.5C32.4183 32.5 36 29.5899 36 26C36 22.4101 32.4183 19.5 28 19.5C23.5817 19.5 20 22.4101 20 26C20 29.5899 23.5817 32.5 28 32.5Z" fill="white"/>
</svg>
