<svg width="77" height="78" viewBox="0 0 77 78" fill="none" xmlns="http://www.w3.org/2000/svg">
<path d="M56.8103 39.9522C56.5126 39.6501 56.1591 39.4104 55.7699 39.2469C55.3806 39.0834 54.9634 38.9993 54.542 38.9993C54.1207 38.9993 53.7035 39.0834 53.3142 39.2469C52.925 39.4104 52.5714 39.6501 52.2738 39.9522L47.1597 45.1327C44.7887 44.4177 40.3644 42.7927 37.5603 39.9522C34.7563 37.1117 33.1521 32.6299 32.4463 30.2282L37.5603 25.0477C37.8585 24.7461 38.0951 24.3879 38.2565 23.9937C38.4179 23.5994 38.501 23.1768 38.501 22.7499C38.501 22.3231 38.4179 21.9004 38.2565 21.5062C38.0951 21.1119 37.8585 20.7537 37.5603 20.4522L24.727 7.45217C24.4293 7.1501 24.0757 6.91045 23.6865 6.74694C23.2973 6.58343 22.8801 6.49927 22.4587 6.49927C22.0374 6.49927 21.6201 6.58343 21.2309 6.74694C20.8417 6.91045 20.4881 7.1501 20.1904 7.45217L11.4894 16.2662C10.2703 17.5012 9.58367 19.1977 9.60934 20.9299C9.68313 25.5579 10.8927 41.6324 23.3988 54.3009C35.9048 66.9694 51.7733 68.1914 56.3451 68.2694H56.435C58.129 68.2694 59.7299 67.5934 60.9427 66.3649L69.6437 57.5509C69.9419 57.2494 70.1784 56.8912 70.3399 56.4969C70.5013 56.1026 70.5844 55.68 70.5844 55.2532C70.5844 54.8263 70.5013 54.4037 70.3399 54.0094C70.1784 53.6151 69.9419 53.257 69.6437 52.9554L56.8103 39.9522ZM56.4029 61.7662C52.3989 61.6979 38.6993 60.6092 27.9353 49.7022C17.1361 38.7627 16.0902 24.8364 16.026 20.8617L22.4587 14.3454L30.7555 22.7499L26.6071 26.9522C26.23 27.3339 25.9527 27.8048 25.8004 28.3223C25.648 28.8398 25.6253 29.3876 25.7344 29.9162C25.8114 30.2899 27.6947 39.1527 33.0205 44.5477C38.3464 49.9427 47.0955 51.8504 47.4645 51.9284C47.986 52.042 48.5273 52.0209 49.0386 51.867C49.55 51.7131 50.0148 51.4313 50.3905 51.0477L54.542 46.8454L62.8388 55.2499L56.4029 61.7662Z" fill="white"/>
</svg>
