<svg width="62" height="63" viewBox="0 0 62 63" fill="none" xmlns="http://www.w3.org/2000/svg">
<path d="M47.8103 33.9522C47.5126 33.6501 47.1591 33.4104 46.7699 33.2469C46.3806 33.0834 45.9634 32.9993 45.542 32.9993C45.1207 32.9993 44.7035 33.0834 44.3142 33.2469C43.925 33.4104 43.5714 33.6501 43.2738 33.9522L38.1597 39.1327C35.7887 38.4177 31.3644 36.7927 28.5603 33.9522C25.7563 31.1117 24.1521 26.6299 23.4463 24.2282L28.5603 19.0477C28.8585 18.7461 29.0951 18.3879 29.2565 17.9937C29.4179 17.5994 29.501 17.1768 29.501 16.7499C29.501 16.3231 29.4179 15.9004 29.2565 15.5062C29.0951 15.1119 28.8585 14.7537 28.5603 14.4522L15.727 1.45217C15.4293 1.1501 15.0757 0.91045 14.6865 0.74694C14.2973 0.58343 13.8801 0.499268 13.4587 0.499268C13.0374 0.499268 12.6201 0.58343 12.2309 0.74694C11.8417 0.91045 11.4881 1.1501 11.1904 1.45217L2.48942 10.2662C1.27025 11.5012 0.583671 13.1977 0.609337 14.9299C0.683129 19.5579 1.89267 35.6324 14.3988 48.3009C26.9048 60.9694 42.7733 62.1914 47.3451 62.2694H47.435C49.129 62.2694 50.7299 61.5934 51.9427 60.3649L60.6437 51.5509C60.9419 51.2494 61.1784 50.8912 61.3399 50.4969C61.5013 50.1026 61.5844 49.68 61.5844 49.2532C61.5844 48.8263 61.5013 48.4037 61.3399 48.0094C61.1784 47.6151 60.9419 47.257 60.6437 46.9554L47.8103 33.9522ZM47.4029 55.7662C43.3989 55.6979 29.6993 54.6092 18.9353 43.7022C8.13609 32.7627 7.09017 18.8364 7.026 14.8617L13.4587 8.34542L21.7555 16.7499L17.6071 20.9522C17.23 21.3339 16.9527 21.8048 16.8004 22.3223C16.648 22.8398 16.6253 23.3876 16.7344 23.9162C16.8114 24.2899 18.6947 33.1527 24.0205 38.5477C29.3464 43.9427 38.0955 45.8504 38.4645 45.9284C38.986 46.042 39.5273 46.0209 40.0386 45.867C40.55 45.7131 41.0148 45.4313 41.3905 45.0477L45.542 40.8454L53.8388 49.2499L47.4029 55.7662Z" fill="#6228B4"/>
</svg>
