<svg width="27" height="27" viewBox="0 0 27 27" fill="none" xmlns="http://www.w3.org/2000/svg">
<path d="M21.4009 19.0991C20.874 18.5944 20.3612 18.0752 19.863 17.5421C19.4445 17.1169 19.1925 16.8075 19.1925 16.8075L16.0425 15.3034C17.3036 13.8731 17.9996 12.0319 18 10.125C18 5.78363 14.4675 2.25 10.125 2.25C5.7825 2.25 2.25 5.78363 2.25 10.125C2.25 14.4664 5.7825 18 10.125 18C12.1084 18 13.9162 17.2575 15.3034 16.0436L16.8075 19.1936C16.8075 19.1936 17.1169 19.4456 17.5421 19.8641C17.9775 20.2725 18.5501 20.8249 19.0991 21.402L20.6269 22.968L21.3064 23.6947L23.6925 21.3086L22.9657 20.6291C22.5394 20.2106 21.9701 19.6549 21.4009 19.0991ZM10.125 15.75C7.02338 15.75 4.5 13.2266 4.5 10.125C4.5 7.02338 7.02338 4.5 10.125 4.5C13.2266 4.5 15.75 7.02338 15.75 10.125C15.75 13.2266 13.2266 15.75 10.125 15.75Z" fill="black"/>
</svg>
