<svg width="13" height="13" viewBox="0 0 13 13" fill="none" xmlns="http://www.w3.org/2000/svg">
<path d="M11.6962 3.9013C11.6345 3.6724 11.5139 3.46364 11.3465 3.29581C11.179 3.12798 10.9706 3.00694 10.7418 2.94472C9.89354 2.7118 6.5 2.70801 6.5 2.70801C6.5 2.70801 3.107 2.70422 2.2582 2.92685C2.02958 2.99192 1.82152 3.11468 1.65401 3.28333C1.4865 3.45199 1.36515 3.66087 1.30162 3.88993C1.07791 4.73818 1.07575 6.49751 1.07575 6.49751C1.07575 6.49751 1.07358 8.26551 1.29566 9.10509C1.42025 9.5693 1.78587 9.93601 2.25062 10.0611C3.10754 10.2941 6.49187 10.2978 6.49187 10.2978C6.49187 10.2978 9.88541 10.3016 10.7337 10.0796C10.9625 10.0174 11.1712 9.89668 11.3391 9.72919C11.5069 9.56171 11.6282 9.35331 11.6908 9.1246C11.915 8.27689 11.9167 6.5181 11.9167 6.5181C11.9167 6.5181 11.9275 4.74955 11.6962 3.9013ZM5.4145 8.12739L5.4172 4.87739L8.23766 6.5051L5.4145 8.12739Z" fill="#666666"/>
</svg>
